<svg width="126" height="39" viewBox="0 0 126 39" fill="none" xmlns="http://www.w3.org/2000/svg">
<path d="M26.6758 4.5132C26.8176 4.53883 26.7548 4.47593 26.7874 4.40603C27.9166 1.9574 29.4315 0.643387 32.2988 0.825113C34.778 0.98354 35.7724 2.36046 36.8157 4.36876C36.8436 4.42467 36.8157 4.48991 36.9133 4.46428C36.9551 4.45496 37.2014 3.82125 37.2734 3.69311C40.0361 -1.21813 47.8501 0.470982 47.7433 6.30716V21.8563C47.727 22.32 47.3692 22.5786 46.9324 22.6182C46.0215 22.6997 44.1023 22.7067 43.1984 22.6158C42.6454 22.5599 42.4038 22.2547 42.3852 21.7095C42.4038 18.1822 42.3689 14.6549 42.3852 11.1299C42.3899 9.86245 42.6919 7.41149 41.7741 6.43297C41.0701 5.68277 39.6156 5.67112 38.7675 6.17902C37.6011 6.87563 37.3873 8.25022 37.3269 9.50599C37.1294 13.5622 37.4779 17.7838 37.3315 21.8563C37.2874 22.3456 36.9946 22.5786 36.5206 22.6182C35.5959 22.6974 33.7022 22.7067 32.7867 22.6182C32.2058 22.5599 32.0176 22.264 31.9735 21.7095C31.9921 18.1496 31.9572 14.5896 31.9735 11.032C31.9805 9.34057 32.3522 6.02059 29.9381 5.79693C27.5332 5.57327 27.0104 7.59089 26.9175 9.55725C26.7246 13.6018 27.0639 17.8001 26.9221 21.8587C26.9128 22.299 26.5713 22.5646 26.16 22.6182C24.9541 22.5063 23.4647 22.7743 22.2937 22.6042C21.7964 22.532 21.6082 22.2361 21.5664 21.7585L21.5803 1.94575C21.6338 1.57531 21.8475 1.30272 22.2286 1.26545C23.4554 1.15129 24.8612 1.35398 26.1066 1.27011C26.3482 1.28875 26.6735 1.65918 26.6735 1.88285V4.51553L26.6758 4.5132Z" fill="#DDDDDD"/>
<path d="M11.6449 9.08218C11.6565 7.54217 11.8563 5.60377 10.1044 4.95375C8.61731 4.40159 6.68413 4.9654 6.04283 6.49609C5.84301 6.97137 5.85696 7.6144 5.2784 7.79845L1.42367 7.40239C0.445468 7.20901 0.970583 5.90432 1.20294 5.28692C2.76667 1.12587 7.9644 0.0378507 11.9051 0.888232C14.9605 1.54757 16.7589 3.21105 17.0517 6.40756C17.3445 9.60406 16.8751 12.7936 17.1028 15.8503C17.1539 16.5422 17.4212 17.2482 17.7697 17.8399C18.0253 18.2733 18.7944 19.0747 18.7758 19.5407C18.7711 19.6595 18.7061 19.762 18.6457 19.8576C17.6977 20.6287 16.8008 21.5676 15.8481 22.3202C15.5112 22.5858 15.1836 22.8677 14.7073 22.6766C14.5888 22.63 14.0335 22.1245 13.908 22.001C13.3225 21.4232 12.8833 20.7243 12.4116 20.0579C11.1105 21.3696 9.70704 22.439 7.83195 22.7489C5.99404 23.0517 3.85407 22.8956 2.32519 21.7494C-0.29575 19.783 -0.393336 15.3098 1.3981 12.761C3.66122 9.53649 8.11776 9.53649 11.6472 9.08218H11.6449ZM11.6495 12.2344C8.84036 12.1272 5.6432 12.9357 5.85232 16.3931C6.04052 19.4825 9.24698 19.7457 10.7852 17.3949C11.782 15.8689 11.6425 13.9818 11.6495 12.2344Z" fill="#DDDDDD"/>
<path d="M114.815 4.85576C114.929 4.87906 114.894 4.84412 114.926 4.79286C115.075 4.55522 115.186 4.14983 115.33 3.87025C116.55 1.51248 118.446 0.515324 121.121 0.876445C124.58 1.34474 125.587 4.24069 125.719 7.33701C125.928 12.1551 125.556 17.1199 125.719 21.9519C125.691 22.4109 125.319 22.581 124.908 22.6159C123.988 22.6951 122.085 22.7068 121.174 22.6159C120.761 22.574 120.426 22.348 120.41 21.9053C120.259 17.7023 120.619 13.3479 120.414 9.16126C120.345 7.72842 120.015 5.90185 118.277 5.74575C115.846 5.52675 115.198 8.31088 115.107 10.1957C114.924 14.0282 115.247 18.0099 115.112 21.8587C115.063 22.4062 114.71 22.5833 114.204 22.6206C113.267 22.6905 111.487 22.7114 110.57 22.6183C110.182 22.5786 109.826 22.3876 109.805 21.9566C109.847 15.2654 109.705 8.58579 109.77 1.8969C109.849 1.57772 110.024 1.31212 110.372 1.27018C111.576 1.12574 113.065 1.37968 114.299 1.27484C114.455 1.26785 114.817 1.6313 114.817 1.73848V4.86275L114.815 4.85576Z" fill="#DDDDDD"/>
<path d="M97.3747 0.837331C109.359 0.0382057 110.022 21.1207 99.4566 22.896C86.7306 25.0348 85.6246 1.62248 97.3747 0.837331ZM97.6187 4.91916C94.6655 5.27329 94.8955 10.8672 94.9768 12.999C95.0488 14.9117 95.3672 18.9097 97.9904 18.905C101.341 18.9004 101.167 13.6024 101.116 11.3261C101.06 8.9311 101.116 4.4998 97.621 4.91916H97.6187Z" fill="#DDDDDD"/>
<path d="M62.5631 9.08196C62.6165 7.34159 62.7513 5.24942 60.6137 4.82307C59.1266 4.52485 57.4978 5.14225 56.9332 6.61469C56.7612 7.06435 56.7752 7.66078 56.1966 7.79824L52.3814 7.41149C51.4659 7.17851 51.8028 6.3258 52.0096 5.66646C53.4177 1.19089 58.7873 -0.00896288 62.9116 0.895004C66.1134 1.59861 67.8491 3.47411 68.0187 6.79642C68.1651 9.65277 67.8607 12.6559 68.0141 15.5076C68.0513 16.1832 68.1907 16.8356 68.4881 17.4413C68.739 17.9492 69.5569 18.8602 69.6615 19.2656C69.7196 19.4939 69.6963 19.7129 69.5592 19.9039L66.613 22.4621C65.988 22.9164 65.6882 22.7463 65.1654 22.292C64.4196 21.6443 63.9107 20.8359 63.3252 20.053C62.0449 21.395 60.6183 22.4411 58.7455 22.744C56.4894 23.1074 53.9079 22.7976 52.4023 20.9127C50.6852 18.7623 50.7433 15.0999 52.2629 12.8563C54.5121 9.53861 58.9849 9.5456 62.5608 9.07963L62.5631 9.08196ZM62.5701 12.2342C60.4719 12.1806 57.5954 12.558 56.9471 14.9414C56.5382 16.4442 56.8867 18.5829 58.6781 18.9138C60.1861 19.191 61.399 18.1659 62.0217 16.8775C62.7257 15.4191 62.5515 13.8092 62.5701 12.2365V12.2342Z" fill="#DDDDDD"/>
<path d="M73.397 5.49639C73.0926 5.45446 72.8184 5.19352 72.7812 4.88365C72.6651 3.91911 72.8672 2.72625 72.7859 1.73841C72.8904 1.28176 73.2785 1.19556 73.6897 1.1676H86.116C86.5133 1.20022 86.9199 1.3237 86.9757 1.78267C87.0314 2.24165 87.0314 4.31984 86.9269 4.68795C86.892 4.81376 86.8037 4.93491 86.7526 5.05606C84.3594 8.61601 81.836 12.0921 79.4103 15.6311C81.7268 15.5868 84.1898 15.8757 86.2693 16.9521C86.8037 17.227 87.2801 17.5112 87.3591 18.1706C87.4799 19.1771 87.28 20.3839 87.366 21.4137C87.3033 21.7748 87.0454 22.073 86.6597 22.0753C82.5912 19.9855 77.9325 19.7968 73.7316 21.6257C73.0786 21.9099 72.4002 22.5413 72.0447 21.4626C72.2004 19.6384 71.5544 17.5252 72.8393 16.0108L80.1468 5.49872H73.3947L73.397 5.49639Z" fill="#DDDDDD"/>
<path d="M18.3159 24.8386C18.5203 24.8059 18.611 24.8665 18.7875 24.9341C19.5357 25.2206 20.5627 25.9336 21.3225 26.3296C37.7986 34.922 57.2489 36.038 74.6614 29.5378C75.3422 29.2838 76.727 28.5779 77.3381 28.4801C78.1235 28.3542 78.853 28.974 78.4883 29.7801C78.3326 30.1249 77.7331 30.493 77.4148 30.7213C74.9635 32.478 72.0172 33.9458 69.2104 35.0478C52.5461 41.5946 33.4746 38.7266 19.7286 27.2872C19.3243 26.9517 18.3019 26.1549 18.0324 25.7868C17.7629 25.4187 17.8465 24.9154 18.3159 24.8386Z" fill="#DDDDDD"/>
<path d="M79.4986 23.5151C80.5558 23.4965 83.265 23.641 84.0759 24.3119C84.4616 24.6311 84.4802 25.4629 84.4709 25.9382C84.4059 28.8737 82.4913 33.8246 80.0446 35.5719C79.7309 35.7956 79.1802 36.0006 79.1616 35.4298C79.15 35.064 79.9563 33.2631 80.1352 32.7598C80.6092 31.4365 81.6989 28.4031 81.2923 27.1007C81.0832 26.4344 80.2374 26.2503 79.6263 26.1618C77.3051 25.831 74.7841 26.29 72.4629 26.5043C71.4499 26.2573 72.3281 25.5933 72.7859 25.2975C74.6865 24.0813 77.2587 23.5501 79.4986 23.5128V23.5151Z" fill="#DDDDDD"/>
</svg>