<svg width="119" height="49" viewBox="0 0 119 49" fill="none" xmlns="http://www.w3.org/2000/svg">
<path d="M36.4356 0.85083V15.6856C36.7938 15.3458 37.108 14.9562 37.4717 14.6219C42.5668 9.92744 51.7871 10.248 56.8629 14.8291C60.5334 18.142 61.7541 23.2674 60.966 28.0696L61.2498 27.4065C63.5618 22.4054 71.2692 22.06 76.0198 21.9688C78.2546 21.9246 80.4949 21.9771 82.7325 21.9246C82.84 19.938 82.4046 17.8823 80.7457 16.6361C78.7286 15.122 74.8901 14.9341 72.523 15.5502C70.696 16.0255 68.938 17.2025 68.7616 19.2444H62.4898C62.691 17.6281 63.2752 16.1222 64.3554 14.9009C67.4913 11.3642 74.4519 10.9028 78.8306 11.4416C81.9113 11.8201 85.1657 12.9447 87.045 15.5475L85.3613 12.2677H92.3248L102.402 32.5071L112.485 12.2733L118.795 12.265V12.3562L100.534 48.262H93.8927C95.5764 44.9297 97.3703 41.6472 99.0843 38.326C99.1283 38.1437 98.9079 37.9033 98.85 37.7237L88.037 17.3462C88.1197 17.675 88.2547 17.9873 88.3374 18.3161C88.5165 19.0262 88.6488 19.8717 88.6846 20.6011C88.9326 25.7597 88.4641 31.1007 88.7259 36.2703L88.8665 38.326H83.4021C83.369 38.326 83.3387 38.2487 83.3332 38.21C83.245 37.6988 83.2946 37.1075 83.1954 36.5909L83.1486 34.6263C81.3767 36.7926 79.1144 38.2432 76.3698 38.8538C69.8335 40.3099 60.1007 38.6217 60.5995 30.0756C60.6022 30.0203 60.6133 29.7274 60.5747 29.7274C59.511 33.3857 56.8519 36.4499 53.3881 38.0083C48.541 40.1883 41.8669 39.6274 37.75 36.1515C37.243 35.7233 36.8076 35.2342 36.3419 34.7672C36.3281 35.621 36.3199 36.4803 36.2482 37.3314C36.2262 37.5938 36.2014 37.9586 36.1573 38.21C36.149 38.2487 36.1215 38.326 36.0884 38.326H30.3016C30.5359 34.5351 30.5414 30.736 30.5359 26.934C30.5469 26.887 30.5028 26.7737 30.4642 26.7737H6.78531C6.89829 28.7493 7.51279 30.7083 8.76935 32.2473C10.8719 34.8197 14.2943 35.6514 17.4991 35.2231C20.1472 34.8695 22.7568 33.4437 23.5697 30.747H29.7037C28.3093 38.326 19.1497 39.948 12.7181 39.1052C7.75529 38.4559 3.49788 36.0327 1.6654 31.1863C0.450182 27.9674 0.447426 23.6543 1.43393 20.3718C3.40143 13.8372 9.0642 11.4001 15.4737 11.2454C23.1729 11.0575 29.3344 14.5804 30.3871 22.6458L30.5303 23.9554V0.85083H36.4329H36.4356ZM24.3082 22.8005C24.209 21.4632 23.9527 20.1618 23.3024 18.9792C21.4479 15.6221 17.1739 14.7821 13.6495 15.4204C9.7779 16.1222 7.34195 18.8991 6.92585 22.8005H24.311H24.3082ZM44.8209 15.3734C34.1044 16.125 33.545 33.0956 43.7132 35.0325C49.2023 36.0797 53.862 32.9547 54.7769 27.4313C55.8874 20.7116 51.9937 14.8733 44.8209 15.3734ZM82.7353 25.8979C80.3103 25.884 77.8882 25.9752 75.4715 25.989C72.1289 26.1521 66.1052 26.4505 66.8409 31.3162C67.5767 36.1819 75.1656 36.0686 78.5715 34.3169C81.7267 32.6922 82.9116 29.3075 82.738 25.8979H82.7353Z" fill="#DDDDDD"/>
</svg>