<svg width="180" height="45" viewBox="0 0 180 45" fill="none" xmlns="http://www.w3.org/2000/svg">
<path d="M63.1359 21.7858C63.1359 10.5505 49.1763 1.39226 31.9548 1.39226C14.7341 1.39226 0.774328 10.5505 0.774328 21.7858C0.774328 22.0755 0.770508 22.8777 0.770508 22.9796C0.770508 34.8984 12.9722 44.552 31.9504 44.552C51.0464 44.552 63.1359 34.901 63.1359 22.982V21.7858Z" fill="#DDDDDD"/>
<path d="M22.0057 15.7248C21.9896 15.755 21.6907 16.0644 21.8844 16.313C22.3581 16.9174 23.8188 17.2638 25.2965 16.9327C26.1766 16.7349 27.3038 15.8376 28.3969 14.9711C29.5808 14.0303 30.7559 13.0885 31.9369 12.7139C33.1872 12.3161 33.9883 12.4865 34.5175 12.6469C35.0984 12.82 35.7807 13.2023 36.87 14.0194C38.9214 15.5614 47.1714 22.761 48.596 24.0062C49.7438 23.4873 54.8444 21.2916 61.7774 19.7634C61.1756 16.0676 58.9265 12.6869 55.5173 9.91817C50.7661 11.9138 44.9582 12.9552 39.279 10.182C39.2502 10.17 36.1763 8.71525 33.1443 8.78694C28.6391 8.89125 26.6876 10.8414 24.621 12.9058L22.0057 15.7248Z" fill="white"/>
<path d="M48.2607 24.7888C48.1643 24.7027 38.5608 16.3011 36.386 14.666C35.1269 13.7219 34.4264 13.481 33.6911 13.3875C33.3086 13.3379 32.7793 13.409 32.41 13.51C31.398 13.7854 30.0748 14.6701 28.9 15.6015C27.6831 16.5702 26.5368 17.4826 25.4722 17.7209C24.1132 18.0256 22.4527 17.6659 21.6951 17.1538C21.3875 16.9475 21.1718 16.7089 21.0677 16.4665C20.7883 15.8175 21.3049 15.2989 21.3892 15.2119L24.0391 12.3459C24.3465 12.0386 24.6571 11.7309 24.9747 11.428C24.1194 11.5394 23.3295 11.7577 22.5602 11.9719C21.6002 12.2419 20.6766 12.4984 19.7425 12.4981C19.3523 12.4981 17.2621 12.1555 16.8657 12.0477C14.4676 11.3913 12.3628 10.7522 9.21863 9.28483C5.45209 12.0888 2.93235 15.595 2.20508 19.4571C2.74576 19.6005 3.61849 19.8599 3.98433 19.9413C12.5094 21.8368 15.1652 23.7895 15.6466 24.1965C16.1681 23.6171 16.9201 23.2495 17.7599 23.2495C18.7037 23.2507 19.5536 23.7246 20.0698 24.4568C20.5585 24.0716 21.2317 23.7419 22.1021 23.7422C22.4973 23.7422 22.9078 23.8154 23.3219 23.9561C24.283 24.2861 24.7793 24.9263 25.0373 25.5055C25.3597 25.36 25.7567 25.2528 26.2236 25.254C26.6826 25.254 27.1601 25.3586 27.6414 25.5669C29.2132 26.2412 29.4583 27.7853 29.3152 28.9494C29.4274 28.9359 29.54 28.9312 29.6543 28.9312C31.5179 28.9321 33.0332 30.4467 33.0332 32.3114C33.0332 32.8881 32.8857 33.4308 32.6295 33.9065C33.1361 34.1918 34.429 34.8371 35.5638 34.6934C36.4704 34.5782 36.8145 34.2691 36.9382 34.0946C37.0225 33.975 37.1118 33.8351 37.0281 33.7346L34.6229 31.0626C34.6229 31.0626 34.2268 30.688 34.3579 30.5431C34.4936 30.3944 34.7375 30.6075 34.9112 30.7529C36.1357 31.7751 37.6302 33.3183 37.6302 33.3183C37.6552 33.3345 37.7548 33.5296 38.3072 33.6286C38.7835 33.7138 39.6251 33.6647 40.2087 33.1864C40.3556 33.065 40.5028 32.9131 40.6257 32.7583C40.6165 32.7647 40.608 32.7759 40.5992 32.7797C41.2142 31.9923 40.5307 31.196 40.5307 31.196L37.7222 28.0427C37.7222 28.0427 37.321 27.6716 37.4571 27.522C37.5796 27.3924 37.8379 27.5878 38.0136 27.7341C38.9034 28.4778 40.1599 29.7389 41.3632 30.9177C41.5977 31.0905 42.657 31.744 44.0575 30.8237C44.9088 30.2669 45.0792 29.5814 45.0551 29.0646C44.9961 28.3806 44.4618 27.8925 44.4618 27.8925L40.6257 24.0363C40.6257 24.0363 40.2207 23.6899 40.3644 23.5148C40.4805 23.3679 40.7447 23.58 40.9166 23.7246C42.139 24.7468 45.4474 27.7794 45.4474 27.7794C45.4935 27.8129 46.6369 28.6265 48.0494 27.7274C48.5546 27.4045 48.8772 26.9176 48.9045 26.3526C48.953 25.3712 48.2607 24.7888 48.2607 24.7888Z" fill="white"/>
<path d="M29.654 29.6777C29.0592 29.6706 28.408 30.0241 28.3228 29.9727C28.2764 29.9412 28.3596 29.7026 28.4154 29.5651C28.4724 29.4276 29.2558 27.0709 27.3464 26.2525C25.8851 25.6246 24.9926 26.3307 24.6853 26.6495C24.6045 26.7335 24.5686 26.7265 24.5595 26.6198C24.5301 26.1958 24.3403 25.0476 23.0785 24.6635C21.2766 24.1109 20.1177 25.3693 19.8236 25.823C19.6922 24.7961 18.8233 23.9986 17.7593 23.9974C16.6036 23.9963 15.6665 24.9327 15.665 26.0883C15.6647 27.2436 16.6012 28.1803 17.7575 28.1803C18.3188 28.1821 18.8286 27.9573 19.2038 27.5968C19.2156 27.6071 19.2203 27.6271 19.2141 27.667C19.1263 28.1845 18.9644 30.0649 20.9331 30.8301C21.723 31.1362 22.3944 30.9088 22.951 30.5183C23.1176 30.4011 23.144 30.4501 23.1205 30.6068C23.0491 31.0907 23.1393 32.1255 24.591 32.7138C25.6955 33.1622 26.349 32.7026 26.7772 32.3071C26.9635 32.1367 27.0146 32.1649 27.024 32.4276C27.0766 33.8277 28.2394 34.9383 29.651 34.9392C31.1053 34.9401 32.2836 33.7642 32.2851 32.3112C32.2862 30.8568 31.1079 29.6938 29.654 29.6777Z" fill="white"/>
<path d="M29.6542 34.752C28.336 34.7505 27.2646 33.7274 27.2165 32.4222C27.2123 32.3097 27.2012 32.0124 26.9496 32.0124C26.8459 32.0124 26.7563 32.0744 26.6526 32.1675C26.3628 32.4366 25.9935 32.7093 25.4545 32.7093C25.2095 32.7093 24.9447 32.6529 24.6647 32.538C23.2724 31.9748 23.2536 31.0184 23.3106 30.634C23.3256 30.5312 23.3306 30.4251 23.2604 30.3414L23.1755 30.265H23.0882C23.0171 30.265 22.9448 30.2941 22.8458 30.364C22.4426 30.6461 22.0571 30.7836 21.6642 30.7836C21.4485 30.7836 21.227 30.7404 21.0042 30.6552C19.1721 29.9415 19.317 28.2117 19.4063 27.6911C19.4198 27.5859 19.3934 27.5039 19.3264 27.4495L19.1968 27.3429L19.0757 27.4592C18.7187 27.8036 18.2512 27.9914 17.7601 27.9914C16.7108 27.9905 15.8566 27.1372 15.8572 26.0885C15.8581 25.0378 16.7129 24.186 17.7631 24.1872C18.7113 24.1872 19.5191 24.9006 19.6405 25.8479L19.7051 26.3589L19.9857 25.9269C20.0175 25.8758 20.7862 24.7131 22.2005 24.7146C22.4691 24.7146 22.747 24.7578 23.0265 24.8442C24.1534 25.1883 24.3444 26.2102 24.3741 26.6356C24.3941 26.8842 24.5707 26.8954 24.605 26.8954C24.7023 26.8954 24.7743 26.8343 24.8248 26.7802C25.0376 26.5584 25.501 26.1896 26.2262 26.1896C26.5574 26.1902 26.9106 26.2687 27.2752 26.4259C29.0665 27.1942 28.254 29.4702 28.2443 29.4943C28.0901 29.8716 28.0845 30.0379 28.2291 30.1342L28.2999 30.1671H28.3513C28.4324 30.1671 28.5329 30.1325 28.6986 30.0763C28.9425 29.992 29.3107 29.8648 29.6545 29.8657H29.6554C31.0042 29.881 32.1008 30.9781 32.0999 32.3112C32.0981 33.6581 31.0012 34.752 29.6542 34.752ZM48.6318 23.7835C45.6742 21.2016 38.8378 15.259 36.9866 13.8689C35.9285 13.0738 35.2071 12.6537 34.5738 12.4647C34.2888 12.3789 33.8956 12.2811 33.3887 12.2805C32.9171 12.2805 32.4117 12.3657 31.8836 12.5338C30.6874 12.9122 29.4952 13.8598 28.3422 14.776L28.2828 14.823C27.2085 15.6765 26.0984 16.5598 25.2586 16.7472C24.8921 16.8298 24.5151 16.8727 24.1384 16.8727C23.1981 16.8712 22.3527 16.6003 22.0356 16.1957C21.9833 16.129 22.0171 16.0206 22.1394 15.8652L22.1552 15.8443L24.7572 13.0403C26.796 11.0024 28.721 9.0784 33.1519 8.97615C33.2256 8.97438 33.3003 8.97321 33.3737 8.97321C36.1315 8.97497 38.889 10.2096 39.1981 10.3527C41.7848 11.6135 44.4541 12.2547 47.1382 12.257C49.9347 12.2579 52.82 11.5656 55.8543 10.1685C55.5155 9.88319 55.1622 9.6064 54.7996 9.33402C52.1344 10.4896 49.595 11.0738 47.1458 11.0726C44.6434 11.0705 42.1425 10.4697 39.7153 9.28554C39.5874 9.22443 36.5426 7.78909 33.3752 7.78733C33.2923 7.78733 33.2074 7.78909 33.1249 7.78997C29.4027 7.87694 27.3058 9.19916 25.8962 10.3568C24.5248 10.3897 23.3418 10.7209 22.2892 11.0147C21.3501 11.2756 20.5388 11.5025 19.7474 11.5016C19.4219 11.5016 18.835 11.4719 18.7821 11.4701C17.8724 11.4422 13.2895 10.318 9.64319 8.93824C9.27089 9.20151 8.91269 9.47359 8.56389 9.75067C12.3727 11.3124 17.0082 12.52 18.471 12.6149C18.8776 12.6413 19.3117 12.6875 19.7457 12.6883C20.7136 12.6883 21.6786 12.4165 22.6142 12.1553C23.1661 11.9999 23.7758 11.8315 24.4158 11.7087C24.2451 11.8762 24.0746 12.0466 23.9039 12.2188L21.2593 15.0783C21.0507 15.2881 20.5999 15.849 20.8973 16.5395C21.0157 16.8181 21.2561 17.0843 21.5919 17.3111C22.2225 17.7351 23.3506 18.0219 24.3985 18.0227C24.7957 18.0227 25.1719 17.9834 25.518 17.9055C26.6261 17.6566 27.7886 16.7311 29.0201 15.7521C30.0015 14.9722 31.3959 13.9823 32.4634 13.6918C32.7611 13.6104 33.1269 13.5604 33.4219 13.5604C33.5098 13.561 33.5924 13.5636 33.6702 13.5745C34.3752 13.6641 35.0572 13.9042 36.2746 14.8177C38.4441 16.4478 48.0488 24.8483 48.1422 24.9315C48.1496 24.937 48.7611 25.4653 48.7185 26.3433C48.6958 26.8325 48.4237 27.2677 47.9515 27.5697C47.5416 27.8289 47.1185 27.9617 46.6906 27.9617C46.0486 27.9602 45.6069 27.6593 45.5784 27.6391C45.5432 27.6103 42.2526 24.5933 41.0423 23.5802C40.8489 23.4203 40.662 23.2766 40.4719 23.2766C40.3708 23.2758 40.2812 23.3189 40.2207 23.395C40.0303 23.6295 40.2436 23.9545 40.4948 24.1681L44.3393 28.0313C44.344 28.036 44.8173 28.4803 44.8696 29.0726C44.8996 29.7132 44.594 30.2482 43.9573 30.6663C43.5036 30.9643 43.044 31.1162 42.5947 31.1162C42.0046 31.1162 41.5903 30.8471 41.4989 30.7836L40.9471 30.2403C39.9395 29.2486 38.899 28.2238 38.1376 27.5879C37.9519 27.4337 37.7532 27.2915 37.564 27.2915C37.4714 27.2915 37.3868 27.3261 37.3222 27.394C37.2349 27.4907 37.175 27.6643 37.3912 27.952C37.48 28.0704 37.5849 28.1685 37.5849 28.1685L40.3905 31.3178C40.4137 31.346 40.9685 32.005 40.4531 32.6626L40.3547 32.7878C40.2706 32.8812 40.1798 32.9664 40.0937 33.0387C39.6157 33.4318 38.9762 33.4741 38.7235 33.4741C38.5875 33.4741 38.457 33.4621 38.3433 33.4421C38.0671 33.3922 37.8811 33.3149 37.7914 33.2082L37.7571 33.1739C37.604 33.0146 36.19 31.5719 35.0202 30.5955C34.8659 30.4663 34.674 30.3029 34.4748 30.3029C34.3769 30.3029 34.2888 30.3414 34.2218 30.4163C33.9899 30.6702 34.3382 31.0486 34.4854 31.1879L36.8779 33.8256C36.8749 33.8497 36.8444 33.9043 36.7865 33.9878C36.7007 34.1053 36.4107 34.3953 35.5426 34.5055C35.4392 34.5181 35.3316 34.524 35.2259 34.524C34.3308 34.524 33.3767 34.0897 32.8845 33.8285C33.1081 33.3554 33.2242 32.8354 33.2242 32.3121C33.2256 30.3431 31.6265 28.7424 29.6575 28.7406C29.6157 28.7406 29.5711 28.7424 29.5285 28.7438C29.5931 27.8447 29.4662 26.1429 27.7189 25.3931C27.2165 25.1753 26.7146 25.0649 26.2271 25.0649C25.8457 25.0649 25.4789 25.1301 25.1328 25.2626C24.7714 24.5595 24.1701 24.047 23.3859 23.7794C22.953 23.6295 22.5219 23.554 22.1056 23.554C21.3786 23.554 20.7086 23.7673 20.1109 24.1925C19.5388 23.4814 18.6737 23.0592 17.7631 23.0592C16.9668 23.0592 16.2001 23.3783 15.6324 23.9404C14.8881 23.3721 11.934 21.4958 4.02865 19.7011C3.64576 19.6144 2.76716 19.3623 2.22854 19.2048C2.13921 19.6326 2.07133 20.0654 2.02637 20.502C2.02637 20.502 3.48473 20.8511 3.77153 20.9152C11.8473 22.709 14.5158 24.5742 14.9671 24.9265C14.8146 25.2932 14.735 25.6892 14.7341 26.0885C14.7332 27.7557 16.0899 29.1149 17.7596 29.1167C17.947 29.1167 18.1325 29.1008 18.3152 29.0668C18.5665 30.2941 19.3696 31.2249 20.5978 31.7021C20.956 31.8405 21.3195 31.911 21.6757 31.911C21.9057 31.9119 22.1382 31.8828 22.3647 31.8252C22.5913 32.4014 23.1023 33.1189 24.2427 33.582C24.6421 33.7433 25.0423 33.8276 25.4313 33.8276C25.7487 33.8276 26.0596 33.7724 26.3555 33.6622C26.9023 34.9938 28.2026 35.8765 29.6533 35.8765C30.6142 35.8773 31.5372 35.486 32.2104 34.7931C32.786 35.1137 34.0032 35.6922 35.2312 35.6949C35.3904 35.6949 35.54 35.6837 35.6887 35.6649C36.909 35.5107 37.4773 35.0344 37.738 34.663C37.7847 34.5986 37.8273 34.5296 37.8634 34.4588C38.152 34.5407 38.4688 34.6083 38.8314 34.6092C39.4978 34.6092 40.1372 34.3824 40.7843 33.9117C41.4193 33.4524 41.8709 32.796 41.9356 32.236C41.9368 32.2286 41.9388 32.2198 41.9397 32.2116C42.153 32.2559 42.3728 32.2792 42.5926 32.2792C43.2785 32.2792 43.9528 32.0647 44.5978 31.6427C45.842 30.8271 46.0583 29.7614 46.0377 29.0647C46.2557 29.1102 46.4782 29.1338 46.6989 29.1338C47.3436 29.1338 47.9759 28.9392 48.5789 28.5549C49.3497 28.0622 49.8136 27.3076 49.8836 26.4291C49.9326 25.832 49.7842 25.23 49.4698 24.7126C51.5538 23.8146 56.318 22.0767 61.9275 20.8129C61.8937 20.378 61.8311 19.9485 61.7535 19.521C54.9657 21.0271 49.9009 23.2188 48.6318 23.7835Z" fill="#DDDDDD"/>
<path d="M75.6854 10.5424V19.7135H72.022V11.2746C72.022 7.17688 74.0845 5.14214 78.1822 5.14214C80.0273 5.14214 81.4383 5.54909 82.4694 6.36298C83.5011 5.57612 84.9116 5.1965 86.7575 5.1965C90.8555 5.1965 92.8907 7.23124 92.8634 11.3286V19.7682H90.9907C89.7968 19.6862 89.2 19.1168 89.2 17.977V10.5964C89.1186 9.10379 88.3041 8.37099 86.7032 8.37099C85.1023 8.37099 84.2875 9.10379 84.261 10.5964V19.7135H80.6247V10.5424C80.5427 9.04943 79.7293 8.31692 78.1281 8.31692C76.5267 8.31692 75.7124 9.04943 75.6854 10.5424Z" fill="#DDDDDD"/>
<path d="M110.56 12.3615C110.668 7.72114 112.961 5.14194 117.764 5.14194H118.854V8.88645L117.177 8.92259C115.168 8.92259 114.223 10.2175 114.223 12.3069V19.7692H110.56V12.3615Z" fill="#DDDDDD"/>
<path d="M143.875 13.7018V12.5271C143.034 12.8799 142.057 13.0239 140.998 13.2408C139.56 13.5123 138.827 14.1907 138.827 15.2488C138.909 16.3885 139.506 16.9309 140.645 16.9309C142.654 16.9309 143.875 15.7368 143.875 13.7018ZM139.062 9.64375L135.701 9.63993C135.83 6.8668 137.225 5.01864 141.324 5.01864C145.286 5.01864 147.295 6.32117 147.376 8.98058V13.8648C147.376 17.8265 144.988 19.5903 141.107 19.8615C137.661 20.1327 135.272 18.532 135.272 15.3572C135.354 11.9106 137.851 10.9886 141.487 10.6357C143.034 10.4459 143.821 9.98429 143.821 9.19772C143.739 8.38353 142.979 7.99597 141.487 7.97658C139.797 7.95425 139.252 8.9653 139.062 9.64375Z" fill="#DDDDDD"/>
<path d="M153.168 12.4956C153.141 15.3995 154.117 16.8645 156.18 16.8645C158.243 16.8645 159.273 15.3995 159.273 12.4956C159.192 9.72781 158.188 8.37092 156.234 8.37092C154.281 8.37092 153.276 9.72781 153.168 12.4956ZM162.856 0.560744V13.4999C162.856 17.8142 160.603 19.9579 156.126 19.9309C151.675 19.8489 149.45 17.4343 149.45 12.6587C149.45 7.77445 151.349 5.27782 155.176 5.14207C156.967 5.14207 158.352 5.87487 159.273 7.36721V2.79205L159.282 2.38804C160.476 0.606874 162.856 0.560744 162.856 0.560744Z" fill="#DDDDDD"/>
<path d="M98.5842 21.9551H99.529V40.9656H95.9199V24.2778C95.9199 23.7362 97.0415 21.9551 98.5842 21.9551Z" fill="#DDDDDD"/>
<path d="M117.189 37.8985C115.127 37.8985 114.15 36.4338 114.177 33.5302C114.286 30.7621 115.29 29.4055 117.244 29.4055C119.198 29.4055 120.201 30.7621 120.283 33.5302C120.283 36.4338 119.252 37.8985 117.189 37.8985ZM118.247 26.1763C116.457 26.1763 115.1 26.9091 114.177 28.4015L114.176 21.9549H113.768C111.968 21.9767 111.022 22.9375 110.568 23.7226V23.5986V34.5342C110.568 38.8481 112.82 40.9922 117.298 40.9655C121.749 40.8832 123.973 38.4685 123.973 33.693C123.973 28.8087 122.074 26.3118 118.247 26.1763Z" fill="#DDDDDD"/>
<path d="M103.641 8.74889C103.181 8.24439 102.482 7.99141 101.544 7.99141C100.931 7.99141 100.422 8.09542 100.016 8.30257C99.61 8.5103 99.2853 8.7671 99.042 9.07356C98.7984 9.38032 98.6268 9.705 98.5277 10.0476C98.4284 10.3902 98.3699 10.6967 98.352 10.9673H104.602C104.421 9.99353 104.101 9.25427 103.641 8.74889ZM99.2991 16.1072C99.8759 16.6666 100.706 16.946 101.788 16.946C102.563 16.946 103.231 16.7524 103.79 16.3643C104.349 15.9767 104.691 15.5662 104.818 15.1334H108.2C107.659 16.8106 106.829 18.0103 105.711 18.7313C104.592 19.453 103.24 19.8135 101.653 19.8135C100.552 19.8135 99.56 19.6378 98.6764 19.2861C97.7925 18.9343 97.0441 18.4337 96.4311 17.7846C95.8176 17.1353 95.3442 16.3601 95.0107 15.4578C94.6766 14.5566 94.5103 13.5644 94.5103 12.4822C94.5103 11.4365 94.6813 10.4628 95.0242 9.56043C95.3665 8.65898 95.8537 7.87916 96.4849 7.22041C97.1164 6.56224 97.8689 6.04364 98.7443 5.6649C99.6188 5.28615 100.588 5.09693 101.653 5.09693C102.843 5.09693 103.88 5.327 104.764 5.78654C105.647 6.24638 106.374 6.86458 106.942 7.6397C107.51 8.4154 107.92 9.29922 108.173 10.2912C108.425 11.2831 108.515 12.32 108.443 13.4019H98.352C98.4061 14.6463 98.7214 15.5486 99.2991 16.1072Z" fill="#DDDDDD"/>
<path d="M126.978 7.94621C126.359 7.94621 125.839 8.08754 125.42 8.36961C125.001 8.65257 124.659 9.01662 124.396 9.46294C124.131 9.90955 123.945 10.4011 123.836 10.9385C123.726 11.4759 123.672 12.0089 123.672 12.5369C123.672 13.0473 123.726 13.5662 123.836 14.0945C123.945 14.6231 124.122 15.1014 124.368 15.5293C124.615 15.9574 124.947 16.3079 125.366 16.5812C125.785 16.8544 126.295 16.991 126.896 16.991C127.825 16.991 128.54 16.7313 129.041 16.2124C129.542 15.6932 129.856 14.9963 129.984 14.1218H133.728C133.473 15.9985 132.744 17.4283 131.542 18.412C130.339 19.3957 128.8 19.8876 126.923 19.8876C125.867 19.8876 124.897 19.7101 124.013 19.3549C123.129 18.9996 122.378 18.5034 121.759 17.8655C121.139 17.2282 120.656 16.4674 120.31 15.5839C119.964 14.7004 119.791 13.7305 119.791 12.6736C119.791 11.5805 119.95 10.5654 120.269 9.62689C120.588 8.68871 121.057 7.87804 121.677 7.1949C122.296 6.51175 123.052 5.97875 123.945 5.59619C124.837 5.21363 125.858 5.02235 127.006 5.02235C127.843 5.02235 128.649 5.13166 129.424 5.35026C130.198 5.56887 130.89 5.90148 131.501 6.3478C132.111 6.79441 132.608 7.34974 132.99 8.01438C133.373 8.67989 133.592 9.46764 133.646 10.3782H129.848C129.592 8.75717 128.636 7.94621 126.978 7.94621Z" fill="#DDDDDD"/>
<path d="M169.159 14.1354C169.268 14.6731 169.455 15.1558 169.719 15.5836C169.983 16.012 170.334 16.3534 170.771 16.6085C171.209 16.8638 171.755 16.991 172.411 16.991C173.067 16.991 173.618 16.8638 174.064 16.6085C174.51 16.3534 174.866 16.012 175.13 15.5836C175.394 15.1558 175.581 14.6731 175.69 14.1354C175.8 13.5982 175.854 13.047 175.854 12.4823C175.854 11.9178 175.8 11.3619 175.69 10.8154C175.581 10.2689 175.394 9.78644 175.13 9.36686C174.866 8.94815 174.51 8.60673 174.064 8.34229C173.618 8.07843 173.067 7.94621 172.411 7.94621C171.755 7.94621 171.209 8.07843 170.771 8.34229C170.334 8.60673 169.983 8.94815 169.719 9.36686C169.455 9.78644 169.268 10.2689 169.159 10.8154C169.049 11.3619 168.995 11.9178 168.995 12.4823C168.995 13.047 169.049 13.5982 169.159 14.1354ZM165.633 9.40799C165.98 8.48832 166.471 7.70498 167.109 7.05797C167.747 6.41156 168.512 5.91029 169.405 5.55506C170.297 5.19982 171.299 5.02235 172.411 5.02235C173.522 5.02235 174.529 5.19982 175.431 5.55506C176.332 5.91029 177.102 6.41156 177.74 7.05797C178.377 7.70498 178.869 8.48832 179.216 9.40799C179.561 10.328 179.735 11.3528 179.735 12.4823C179.735 13.612 179.561 14.6319 179.216 15.5428C178.869 16.4539 178.377 17.2326 177.74 17.879C177.102 18.526 176.332 19.0226 175.431 19.3684C174.529 19.7142 173.522 19.8876 172.411 19.8876C171.299 19.8876 170.297 19.7142 169.405 19.3684C168.512 19.0226 167.747 18.526 167.109 17.879C166.471 17.2326 165.98 16.4539 165.633 15.5428C165.287 14.6319 165.114 13.612 165.114 12.4823C165.114 11.3528 165.287 10.328 165.633 9.40799Z" fill="#DDDDDD"/>
<path d="M126.097 33.5169C126.205 28.8765 128.498 26.2976 133.302 26.2976H134.391V30.0418L132.714 30.0783C130.705 30.0783 129.76 31.3729 129.76 33.4623V40.9246H126.097V33.5169Z" fill="#DDDDDD"/>
<path d="M144.444 29.9049C143.984 29.4002 143.285 29.1475 142.347 29.1475C141.734 29.1475 141.224 29.2512 140.819 29.4583C140.413 29.6664 140.088 29.9232 139.845 30.2293C139.601 30.5361 139.429 30.8611 139.33 31.2037C139.231 31.5463 139.173 31.8527 139.155 32.123H145.404C145.224 31.1493 144.904 30.41 144.444 29.9049ZM140.102 37.2632C140.679 37.8224 141.508 38.1018 142.59 38.1018C143.366 38.1018 144.034 37.9082 144.593 37.5203C145.151 37.1328 145.494 36.722 145.621 36.2895H149.003C148.461 37.9666 147.632 39.1663 146.514 39.8874C145.395 40.609 144.042 40.9692 142.455 40.9692C141.355 40.9692 140.363 40.7938 139.479 40.4418C138.595 40.0901 137.847 39.5897 137.234 38.9407C136.62 38.291 136.147 37.5159 135.813 36.6139C135.479 35.7127 135.313 34.7205 135.313 33.638C135.313 32.5923 135.484 31.6185 135.827 30.7165C136.169 29.8147 136.656 29.0349 137.288 28.3765C137.919 27.7183 138.672 27.1997 139.547 26.821C140.422 26.4422 141.391 26.2527 142.455 26.2527C143.646 26.2527 144.683 26.4831 145.567 26.9426C146.45 27.4021 147.176 28.0203 147.745 28.7958C148.313 29.5715 148.723 30.4553 148.976 31.4469C149.228 32.4389 149.318 33.4758 149.246 34.558H139.155C139.209 35.802 139.524 36.7044 140.102 37.2632Z" fill="#DDDDDD"/>
<path d="M107.012 25.2423H103.401V21.9543H107.012V25.2423Z" fill="#DDDDDD"/>
<path d="M107.011 40.9655H103.401V26.8947H107.011V40.9655Z" fill="#DDDDDD"/>
</svg>