<svg width="135" height="41" viewBox="0 0 135 41" fill="none" xmlns="http://www.w3.org/2000/svg">
<path d="M107.589 34.0565L106.252 34.2134L33.5467 40.4974L33.3357 40.4432L26.9746 34.0565H107.589Z" fill="#DDDDDD"/>
<path d="M21.8922 29.8692H15.4228L9.1102 21.5199L9.05886 21.3916H5.33922V29.8692H0.102051V2.39543L9.14015 2.39258C17.5364 2.88606 21.2746 13.232 14.9792 18.9584C14.8551 19.0711 14.1848 19.5389 14.199 19.6287L21.8922 29.8692ZM5.34064 16.2114H9.13873C11.0656 16.2114 12.8741 14.1477 13.0338 12.3064C13.2235 10.1257 11.3665 7.62974 9.08596 7.62974H5.34064V16.2129V16.2114Z" fill="#DDDDDD"/>
<path d="M34.4649 8.83205V7.89073H39.441V29.8706H34.4649V28.8765C30.2146 31.8873 24.7079 30.2157 21.9025 26.1195C18.8789 21.7039 19.0315 15.1332 22.4188 10.9543C24.8776 7.92068 29.0679 6.35609 32.8076 7.95063L34.4649 8.83348V8.83205ZM29.5301 12.72C23.1191 12.9054 23.3373 25.6532 30.0406 25.1625C36.1507 24.7147 35.8611 12.5374 29.5301 12.72Z" fill="#DDDDDD"/>
<path d="M66.2076 7.88928L66.2048 21.0535C66.5927 26.613 74.1404 26.7014 74.4855 20.9494L74.4827 7.89071H79.4588V29.8705H74.4827V29.0861C73.8779 29.3856 73.3032 29.7365 72.6628 29.9618C67.0206 31.9543 61.5039 27.3518 61.2314 21.6796V7.88928H66.2076Z" fill="#DDDDDD"/>
<path d="M47.4021 0.615479L47.4035 15.5297L53.4522 7.88932H60.3923L51.8534 18.2253L61.7543 29.9219H54.8142L47.4021 20.9209V29.9219H42.3218V0.615479H47.4021Z" fill="#DDDDDD"/>
<path d="M134.198 15.4784V29.9219H129.273L129.276 16.7064C128.777 11.1269 121.315 11.1512 120.995 16.9674L120.998 29.8692H116.022V7.88933H120.998V8.72654C121.289 8.66236 121.56 8.41704 121.834 8.2787C126.777 5.79418 132.509 8.84206 133.869 14.0008L134.198 15.4769V15.4784Z" fill="#DDDDDD"/>
<path d="M113.926 20.2934H99.521C99.7107 21.9621 100.555 23.6194 101.914 24.6277C104.554 26.5874 107.635 25.4977 109.291 22.9091L113.714 25.5491C111.246 29.1389 107.22 31.1742 102.82 30.1601C94.7516 28.3003 92.2386 17.7261 96.7541 11.3822C101.195 5.1424 110.259 6.349 113.202 13.2991C114.143 15.524 114.264 17.9173 113.926 20.2948V20.2934ZM108.793 16.0532C108.405 13.1165 105.645 11.3565 102.808 12.4034C101.247 12.9796 100.149 14.4386 99.8362 16.0532H108.793Z" fill="#DDDDDD"/>
<path d="M88.8355 2.39539V7.8907H93.1313V13.1236H88.8355V22.8834C88.8355 23.7291 89.5301 24.7047 90.2903 25.0413C91.2558 25.4691 92.0502 25.181 92.9217 24.7118L96.115 29.0062C95.1366 29.6295 93.873 30.0716 92.7206 30.2713C88.121 31.0714 84.2159 27.8852 83.8593 23.3013V13.1236H81.188V7.8907H83.8593V2.39539H88.8355Z" fill="#DDDDDD"/>
</svg>