<svg width="142" height="31" viewBox="0 0 142 31" fill="none" xmlns="http://www.w3.org/2000/svg">
<path d="M80.9295 4.02917C85.9896 4.44047 86.626 11.2867 83.9884 14.6158C83.5469 15.1728 83.0466 15.5638 82.5353 16.0433C83.431 16.2591 84.2091 17.0411 84.5365 17.8932C85.5095 20.4218 83.8063 23.8099 85.9896 25.9954H81.2918C81.0877 25.9954 80.729 25.6358 80.6058 25.4698C80.0411 24.7062 79.8958 23.3764 79.8682 22.445C79.8387 21.4122 80.1735 19.2488 79.4157 18.4686C79.3127 18.3616 78.8675 18.1071 78.7461 18.1071H73.8074V25.9954H68.8374V4.03102H80.9295V4.02917ZM73.8074 13.0093H78.8068C79.0883 13.0093 79.6622 12.6386 79.87 12.4357C81.1355 11.1908 80.6388 8.77654 78.748 8.64006C78.3966 8.61424 78.0895 8.70276 77.7786 8.70461C76.4543 8.71936 75.1299 8.68801 73.8056 8.70276V13.0112L73.8074 13.0093Z" fill="#DDDDDD"/>
<path d="M105.627 11.0062H100.96C100.482 9.04932 99.5053 7.59228 97.3532 7.42629C91.87 7.00394 90.2495 12.6218 91.1692 17.0759C91.9454 20.8347 95.6481 23.7138 99.3415 21.4305C100.572 20.6706 101.139 19.422 100.839 17.9834H96.4758V13.675H105.809V25.9915H102.566C102.373 25.8274 101.781 24.6359 101.608 24.6636C101.562 24.671 100.953 25.0823 100.819 25.1524C96.9007 27.2236 93.3636 27.2918 89.9276 24.2634C86.3721 21.128 85.5848 15.8255 86.613 11.3566C88.0422 5.15589 94.7523 1.49485 100.714 4.0585C103.425 5.22413 105.274 8.11792 105.625 11.0043L105.627 11.0062Z" fill="#DDDDDD"/>
<path d="M48.231 25.9935L55.1452 4.12315L55.3494 4.02356H60.7498L68.3538 25.9916H63.0196L61.5278 21.5578L55.1985 21.5892L53.5946 25.9916H48.231V25.9935ZM60.049 17.5593L58.1103 12.3416L56.2911 17.5593H60.049Z" fill="#DDDDDD"/>
<path d="M52.9586 4.02966V8.45795H46.7158V25.9941H41.5029V8.45795H35.3208V4.02966H52.9586Z" fill="#DDDDDD"/>
<path d="M123.083 4.02917V8.45746H112.779V12.4634H121.628V16.4675H112.779V21.5653H123.083V25.9936H107.628V4.02917H123.083Z" fill="#DDDDDD"/>
<path d="M141.447 4.02917V8.45746H135.265V25.9936H130.052V8.45746H123.81V4.02917H141.447Z" fill="#DDDDDD"/>
<path d="M15.8043 0.510064C26.4801 0.961931 33.4587 11.9617 29.0092 21.8289C24.2544 32.3731 9.67183 33.7269 3.02799 24.2524C-3.88625 14.3944 2.9636 1.00988 14.835 0.508218C15.144 0.495308 15.4953 0.495308 15.8043 0.508218V0.510064ZM25.2845 15.6006C25.2845 10.1099 20.8387 5.65765 15.3537 5.65765C9.86865 5.65765 5.42286 10.1099 5.42286 15.6006C5.42286 21.0912 9.86865 25.5435 15.3537 25.5435C20.8387 25.5435 25.2845 21.0912 25.2845 15.6006Z" fill="#DDDDDD"/>
<path d="M15.3573 20.6875C18.1803 20.6875 20.4689 18.396 20.4689 15.5694C20.4689 12.7427 18.1803 10.4513 15.3573 10.4513C12.5342 10.4513 10.2456 12.7427 10.2456 15.5694C10.2456 18.396 12.5342 20.6875 15.3573 20.6875Z" fill="#DDDDDD"/>
</svg>
