<svg width="163" height="40" viewBox="0 0 163 40" fill="none" xmlns="http://www.w3.org/2000/svg">
<path d="M58.7255 16.1715C59.4727 15.1381 60.3297 14.2042 61.5834 13.7887C64.1899 12.9294 67.3453 13.7497 68.3829 16.4662C68.5211 16.5656 68.9354 15.8838 69.0487 15.7595C70.1714 14.5238 71.6057 13.6183 73.3197 13.4904C78.0333 13.1389 79.5809 16.7396 79.7509 20.8162C79.889 24.1399 79.6411 27.5595 79.7509 30.8939H75.0727V20.5214C75.0727 20.2018 74.8319 19.3603 74.7044 19.0336C73.734 16.5514 70.4936 16.903 69.5977 19.2005C69.541 19.3425 69.3568 19.8929 69.3568 19.9994V30.8939H64.6786V20.2232C64.6786 19.9852 64.4414 19.2537 64.3422 18.9981C63.4285 16.6793 60.6485 16.871 59.4692 18.8702C59.3169 19.1294 58.9627 19.9533 58.9627 20.2196V30.8904H54.3589V13.8633H58.7396V16.1679L58.7255 16.1715Z" fill="#DDDDDD"/>
<path d="M96.6016 30.8903C95.1815 31.2916 93.6161 31.3271 92.5891 30.1126L91.9588 29.1042C91.6082 29.3953 91.3213 29.7575 90.953 30.031C87.2841 32.7475 81.3522 30.94 81.5257 25.8692C81.6992 20.7522 87.4612 19.6443 91.555 19.6194C91.7215 16.0933 87.4859 16.53 85.2017 17.3574C84.6528 17.5563 84.1605 17.8865 83.6081 18.0286L82.8042 15.1451C82.7582 14.9498 83.0379 14.8256 83.1866 14.7439C86.5368 12.9329 93.1274 12.6239 95.3267 16.3702C96.8637 18.9909 96.2545 24.6299 96.3856 27.8045C96.4281 28.8378 96.3856 29.8676 96.6051 30.8903H96.6016ZM91.7003 22.7123C89.7241 22.6129 86.204 23.0177 86.204 25.649C86.204 28.1028 89.0229 28.4543 90.6201 27.1724C90.9813 26.8812 91.7003 25.9615 91.7003 25.4999V22.7123Z" fill="#DDDDDD"/>
<path d="M51.0765 8.21362H46.4727V30.8939H51.0765V8.21362Z" fill="#DDDDDD"/>
<path d="M115.834 8.21362V13.5685H119.843V17.883H115.834V25.3543C115.834 25.6135 116.118 26.3948 116.266 26.6327C116.936 27.7015 118.582 27.4281 119.624 27.176L119.691 30.8122C117.662 31.3378 115.257 31.6396 113.391 30.4784C111.879 29.5374 111.489 27.8507 111.301 26.1746V8.21362H115.834Z" fill="#DDDDDD"/>
<path d="M109.375 13.5684V18.0285C107.611 17.7231 105.685 17.9717 104.711 19.6407C104.53 19.9461 104.176 20.8587 104.176 21.1889V30.8938H99.4233V13.8667H103.581V17.0626C103.797 17.1052 103.698 16.9987 103.747 16.8993C103.854 16.6827 103.928 16.427 104.038 16.221C105.1 14.2538 107.112 13.1104 109.371 13.5684H109.375Z" fill="#DDDDDD"/>
<path d="M5.55453 8.21363L8.85867 25.8373L12.8003 8.21008H17.8822L21.3741 25.6881L24.8659 8.21363H29.6929L23.7539 30.8406C22.0398 31.3378 19.9186 31.32 18.7464 29.7718C18.2328 29.09 18.0522 28.2839 17.8468 27.4743C17.2589 25.1484 16.756 22.6343 16.2744 20.2764C15.8317 18.1032 15.3855 15.9264 15.1376 13.7177L11.1146 30.8797C9.90693 31.1247 8.53995 31.3129 7.36419 30.8335C5.96887 30.2618 5.51201 28.9089 5.13308 27.5631L0.433594 8.21363H5.55803H5.55453Z" fill="#DDDDDD"/>
<path d="M39.1206 29.1077C39.0109 29.0261 38.4018 29.7363 38.2672 29.8499C34.9807 32.5629 28.9993 31.352 28.6487 26.622C28.2308 20.9759 34.2193 19.5804 38.678 19.6656C38.7807 15.4719 33.0082 16.6615 30.731 18.1032L29.8492 15.0777C29.8315 15.0138 29.8669 14.9854 29.9094 14.9463C30.0687 14.8007 30.9754 14.4279 31.2304 14.332C34.5876 13.0643 40.1335 12.7731 42.3186 16.2069C44.1282 19.0548 43.2783 24.9815 43.427 28.4082C43.4624 29.2214 43.6183 30.0345 43.6431 30.8477C43.5899 31.004 42.7754 31.1069 42.5771 31.1211C40.9728 31.2348 39.6519 30.7163 39.1206 29.1113V29.1077ZM38.8232 22.7124C37.0241 22.6129 33.6562 22.9503 33.3481 25.2229C32.8842 28.6177 37.3676 28.6461 38.5576 26.1249C38.6107 26.0112 38.8267 25.4253 38.8267 25.3543V22.7159L38.8232 22.7124Z" fill="#DDDDDD"/>
<path d="M162.104 11.1895C162.118 11.328 162.121 11.5695 162.104 11.7115C162.043 12.237 161.739 12.7306 161.314 13.0396L151.901 17.3754C150.505 17.6452 149.163 15.1595 150.378 14.2079C153.236 12.2442 156.03 10.1597 158.927 8.26702C160.489 7.85511 161.958 9.81171 162.107 11.1895H162.104Z" fill="#DDDDDD"/>
<path d="M144.039 0.0534865C144.747 -0.0423906 145.59 0.02863 146.238 0.341118C147.623 1.00871 147.343 2.04205 147.251 3.34172C147.039 6.31036 146.663 9.279 146.415 12.2441C146.005 13.4337 143.451 13.4727 142.962 12.2441L142.049 2.37584C141.797 1.08683 142.867 0.209731 144.039 0.0499361V0.0534865Z" fill="#DDDDDD"/>
<path d="M129.704 8.2314C130.051 8.17814 130.405 8.19944 130.713 8.37344L139.12 14.3072C140.062 15.2766 138.968 17.4036 137.643 17.4072C134.364 16.0436 131.163 14.4421 127.936 12.94C126.368 11.6226 127.975 8.50483 129.704 8.2314Z" fill="#DDDDDD"/>
<path d="M162.105 27.3998C162.119 27.5276 162.115 27.7158 162.105 27.8472C162.016 28.9302 161.109 30.3613 160.065 30.7519C159.169 31.0857 158.861 30.8194 158.145 30.3613C155.51 28.6923 153.014 26.5937 150.379 24.9034C149.15 24.005 150.531 21.4518 151.859 21.7039C155.114 23.1847 158.386 24.6584 161.577 26.2563C161.811 26.48 162.069 27.0837 162.105 27.4033V27.3998Z" fill="#DDDDDD"/>
<path d="M127.744 26.3096C130.949 24.6548 134.285 23.1847 137.579 21.6862C138.942 21.7394 139.916 23.451 139.261 24.6406C136.587 26.5013 133.995 28.6177 131.233 30.3577C130.613 30.7483 130.344 31.0324 129.544 30.8122C127.893 30.3648 126.593 27.7655 127.744 26.306V26.3096Z" fill="#DDDDDD"/>
<path d="M144.563 25.9296C145.19 25.9012 146.188 26.2137 146.412 26.86L147.325 36.6537C147.874 39.9135 141.51 39.9135 142.048 36.6572L142.959 26.86C143.129 26.3025 144.028 25.9545 144.563 25.9296Z" fill="#DDDDDD"/>
</svg>